<?xml version="1.0" standalone="no"?>
<!DOCTYPE svg PUBLIC "-//W3C//DTD SVG 20010904//EN"
 "http://www.w3.org/TR/2001/REC-SVG-20010904/DTD/svg10.dtd">
<svg version="1.0" xmlns="http://www.w3.org/2000/svg"
 width="512.000000pt" height="512.000000pt" viewBox="0 0 512.000000 512.000000"
 preserveAspectRatio="xMidYMid meet">
<metadata>
Created by potrace 1.16, written by Peter Selinger 2001-2019
</metadata>
<g transform="translate(0.000000,512.000000) scale(0.100000,-0.100000)"
fill="#000000" stroke="none">
<path d="M79 5097 c-18 -12 -44 -38 -56 -56 l-23 -34 0 -657 0 -657 23 -34
c12 -18 40 -44 62 -56 l40 -23 1197 0 1196 0 56 -112 c31 -61 56 -117 56 -124
0 -9 -32 -13 -112 -16 -129 -3 -163 -18 -198 -88 -19 -38 -20 -61 -20 -680 0
-619 1 -642 20 -680 35 -70 69 -85 198 -88 l112 -4 0 -108 c0 -60 3 -115 6
-124 5 -14 -58 -16 -623 -18 l-630 -3 -36 -28 c-70 -54 -67 -15 -67 -740 l0
-654 23 -34 c12 -18 38 -44 56 -56 l34 -23 1807 0 1807 0 34 23 c18 12 44 38
56 56 l23 34 0 2447 0 2447 -23 34 c-12 18 -38 44 -56 56 l-34 23 -2447 0
-2447 0 -34 -23z m1515 -320 c3 -90 13 -189 21 -221 42 -161 146 -279 395
-446 113 -77 182 -132 257 -206 55 -56 106 -111 112 -123 l12 -21 -1106 0
-1105 0 0 590 0 590 703 0 704 0 7 -163z m3346 -2217 l0 -2380 -789 0 -789 0
-63 77 c-233 290 -389 637 -453 1010 -8 51 -21 170 -27 266 -19 274 -1 479 75
827 37 173 50 338 36 489 -31 352 -141 664 -332 944 -134 195 -278 332 -513
488 -146 97 -244 192 -276 266 -22 50 -38 183 -39 321 l0 72 1585 0 1585 0 0
-2380z m-2227 513 c31 -148 39 -218 39 -353 -1 -139 -10 -204 -61 -445 -16
-77 -32 -167 -36 -200 -12 -113 -5 -105 -95 -105 l-80 0 0 590 0 590 109 0
108 0 16 -77z m-46 -1808 c50 -350 187 -699 389 -992 l64 -93 -830 0 -830 0 0
590 0 590 597 -2 597 -3 13 -90z"/>
<path d="M1965 4755 c-19 -18 -25 -35 -25 -67 1 -95 52 -155 236 -278 151
-101 216 -152 312 -245 94 -89 194 -211 272 -330 70 -107 178 -328 219 -447
38 -111 56 -133 113 -133 31 0 45 6 64 28 13 16 24 41 24 57 0 45 -63 210
-140 366 -177 362 -423 640 -750 849 -119 76 -167 120 -174 160 -8 43 -39 65
-89 65 -27 0 -45 -7 -62 -25z"/>
<path d="M3134 2797 c-30 -25 -30 -27 -42 -179 -7 -84 -22 -196 -33 -248 -55
-261 -70 -350 -80 -482 -17 -225 4 -525 53 -733 49 -213 151 -453 269 -635
115 -179 146 -204 216 -175 64 27 70 87 17 160 -124 172 -218 353 -280 542
-108 328 -131 747 -58 1088 52 246 63 313 75 442 16 189 5 227 -73 239 -27 5
-40 1 -64 -19z"/>
<path d="M79 3307 c-18 -12 -44 -38 -56 -56 l-23 -34 0 -657 0 -657 22 -33
c13 -18 36 -43 51 -54 28 -21 33 -21 938 -24 1014 -3 951 -7 1007 66 l27 35 0
667 0 667 -27 35 c-55 72 6 68 -1001 68 l-904 0 -34 -23z m1791 -747 l0 -590
-845 0 -845 0 0 590 0 590 845 0 845 0 0 -590z"/>
<path d="M95 1524 c-16 -8 -38 -23 -49 -32 -47 -43 -46 -31 -46 -725 l0 -654
23 -34 c12 -18 38 -44 57 -57 l34 -23 405 3 406 3 34 24 c18 13 42 42 52 65
17 39 19 78 19 673 0 422 -4 641 -11 660 -14 38 -57 83 -96 99 -26 11 -112 14
-415 14 -328 0 -387 -2 -413 -16z m755 -754 l0 -590 -335 0 -335 0 0 590 0
590 335 0 335 0 0 -590z"/>
</g>
</svg>
