<?xml version="1.0" standalone="no"?>
<!DOCTYPE svg PUBLIC "-//W3C//DTD SVG 20010904//EN"
 "http://www.w3.org/TR/2001/REC-SVG-20010904/DTD/svg10.dtd">
<svg version="1.0" xmlns="http://www.w3.org/2000/svg"
 width="512.000000pt" height="512.000000pt" viewBox="0 0 512.000000 512.000000"
 preserveAspectRatio="xMidYMid meet">
<metadata>
Created by potrace 1.16, written by Peter Selinger 2001-2019
</metadata>
<g transform="translate(0.000000,512.000000) scale(0.100000,-0.100000)"
fill="#000000" stroke="none">
<path d="M1906 4848 c-16 -16 -106 -213 -271 -600 l-247 -578 -94 0 -94 0 0
145 c0 140 -1 147 -24 170 -33 33 -67 37 -269 33 -168 -3 -178 -4 -199 -26
-17 -17 -24 -38 -28 -84 l-5 -61 -82 187 c-46 103 -83 194 -83 202 0 27 -27
80 -61 119 -99 112 -289 113 -387 1 -65 -75 -62 -24 -62 -945 0 -940 -5 -876
76 -953 52 -49 106 -70 179 -70 149 0 249 97 262 254 5 65 14 89 84 228 l78
155 0 -727 c1 -557 -2 -728 -11 -728 -30 0 -160 -90 -224 -156 -86 -88 -154
-216 -178 -336 -70 -346 122 -678 459 -794 69 -24 96 -28 200 -28 132 -1 194
11 293 55 174 78 306 221 368 397 l23 67 958 191 c527 106 959 191 961 189 1
-1 -2 -14 -7 -28 -21 -54 -31 -191 -21 -270 21 -164 82 -289 202 -409 261
-261 687 -263 957 -5 304 292 271 798 -68 1048 -36 27 -85 57 -108 66 l-43 18
0 108 0 107 145 0 c142 0 147 1 170 25 24 23 25 28 25 170 l0 145 145 0 c142
0 147 1 170 25 l25 24 0 722 0 722 -141 188 c-106 142 -148 190 -171 198 -20
7 -166 11 -415 11 -408 0 -438 -3 -462 -48 -6 -12 -11 -80 -11 -161 l0 -141
-94 0 -94 0 -247 578 c-165 387 -255 584 -271 600 l-25 22 -629 0 -629 0 -25
-22z m1403 -653 c116 -272 214 -502 217 -510 5 -13 -107 -15 -966 -15 -922 0
-972 1 -965 18 3 9 101 239 218 510 l212 492 536 0 536 0 212 -495z m-2998 39
l24 -26 3 -766 c2 -422 0 -782 -3 -800 -12 -68 -84 -96 -132 -50 l-23 21 0
803 0 803 26 20 c36 29 75 27 105 -5z m709 -1502 l0 -1108 -80 0 -80 1 0 1107
0 1108 80 0 80 0 0 -1108z m3240 0 l0 -1108 -80 0 -80 0 0 1108 0 1108 80 0
80 0 0 -1108z m574 966 l106 -142 0 -623 0 -623 -250 0 -250 0 0 765 0 765
144 0 144 0 106 -142z m-3474 -288 l0 -80 -80 0 -80 0 0 80 0 80 80 0 80 0 0
-80z m2220 0 l0 -80 -1020 0 -1020 0 0 80 0 80 1020 0 1020 0 0 -80z m340 0
l0 -80 -80 0 -80 0 0 80 0 80 80 0 80 0 0 -80z m-2557 -452 c5 -221 14 -267
82 -403 95 -192 259 -329 475 -397 75 -23 75 -23 645 -23 l570 0 80 27 c212
73 368 206 460 393 67 135 77 181 82 403 l5 192 79 0 79 0 0 -590 0 -590
-1360 0 -1360 0 0 590 0 590 79 0 79 0 5 -192z m2217 45 c0 -175 -16 -260 -64
-358 -61 -122 -152 -213 -273 -274 -118 -59 -139 -61 -680 -61 -323 0 -510 4
-545 11 -75 16 -192 72 -252 121 -71 58 -121 120 -162 203 -48 98 -64 183 -64
358 l0 147 1020 0 1020 0 0 -147z m1020 -953 l0 -80 -80 0 -80 0 0 80 0 80 80
0 80 0 0 -80z m-680 -340 l0 -80 -1360 0 -1360 0 0 80 0 80 1360 0 1360 0 0
-80z m-2825 -292 c111 -36 193 -99 259 -196 62 -92 87 -174 87 -281 0 -255
-180 -463 -434 -503 -320 -49 -618 248 -569 570 13 85 61 192 113 256 129 154
350 217 544 154z m2586 -9 l-40 -42 -993 -198 c-546 -110 -1001 -199 -1010
-199 -14 0 -18 8 -18 38 0 115 -81 295 -183 405 l-35 37 1160 0 1159 0 -40
-41z m650 10 c231 -66 390 -319 350 -556 -46 -272 -305 -465 -569 -425 -91 14
-198 63 -265 122 -241 212 -222 599 38 785 138 99 280 122 446 74z"/>
<path d="M2077 4413 c-15 -37 -24 -70 -20 -74 10 -9 155 -70 158 -67 11 11 55
131 51 136 -5 4 -156 72 -160 72 -1 0 -13 -30 -29 -67z"/>
<path d="M1921 4049 c-40 -94 -69 -175 -64 -179 10 -9 155 -72 158 -68 10 15
147 349 144 351 -8 6 -152 67 -158 67 -4 0 -39 -77 -80 -171z"/>
<path d="M4600 3410 l0 -90 90 0 90 0 0 90 0 90 -90 0 -90 0 0 -90z"/>
<path d="M4600 3070 l0 -90 90 0 90 0 0 90 0 90 -90 0 -90 0 0 -90z"/>
<path d="M859 1187 c-120 -45 -179 -130 -179 -257 0 -105 80 -212 178 -240
126 -34 248 14 308 122 25 46 29 64 29 128 0 53 -6 85 -19 110 -26 49 -74 98
-121 122 -49 26 -147 33 -196 15z m132 -196 c31 -32 35 -50 17 -84 -27 -52
-83 -62 -123 -22 -40 39 -31 94 20 123 32 18 55 14 86 -17z"/>
<path d="M4110 1191 c-46 -15 -85 -39 -116 -73 -54 -56 -69 -95 -69 -178 0
-64 4 -82 29 -128 48 -86 129 -132 230 -132 140 2 242 96 253 234 13 156 -88
273 -241 282 -33 2 -72 0 -86 -5z m103 -183 c52 -27 62 -83 22 -123 -40 -40
-96 -30 -123 22 -18 34 -14 52 17 84 32 31 50 35 84 17z"/>
</g>
</svg>
