<?xml version="1.0" standalone="no"?>
<!DOCTYPE svg PUBLIC "-//W3C//DTD SVG 20010904//EN"
 "http://www.w3.org/TR/2001/REC-SVG-20010904/DTD/svg10.dtd">
<svg version="1.0" xmlns="http://www.w3.org/2000/svg"
 width="512.000000pt" height="512.000000pt" viewBox="0 0 512.000000 512.000000"
 preserveAspectRatio="xMidYMid meet">
<metadata>
Created by potrace 1.16, written by Peter Selinger 2001-2019
</metadata>
<g transform="translate(0.000000,512.000000) scale(0.100000,-0.100000)"
fill="#000000" stroke="none">
<path d="M853 4705 c-47 -20 -350 -251 -370 -282 -13 -19 -18 -47 -18 -93 -1
-36 -7 -80 -14 -98 -18 -42 -9 -112 17 -149 15 -22 81 -58 261 -144 l240 -114
460 -612 c254 -337 456 -615 451 -618 -17 -10 -11 -71 9 -96 l18 -23 -166
-126 c-184 -139 -211 -171 -211 -253 0 -84 25 -115 200 -254 88 -70 160 -130
160 -134 0 -4 -10 -9 -23 -13 -40 -10 -145 -84 -198 -138 -52 -55 -124 -184
-135 -243 -6 -34 -8 -35 -50 -35 -98 0 -233 -72 -303 -160 -21 -27 -41 -54
-43 -59 -1 -5 -36 -17 -77 -25 -94 -20 -181 -61 -253 -119 -90 -74 -171 -213
-192 -329 l-7 -38 -83 0 c-68 0 -86 -3 -99 -18 -23 -25 -22 -85 1 -105 17 -16
180 -17 2134 -17 2036 0 2116 1 2131 18 21 23 22 80 2 102 -8 9 -24 52 -35 95
-62 244 -294 424 -546 425 l-51 0 -6 60 c-27 250 -242 467 -492 496 l-56 7
-31 61 c-17 34 -45 81 -62 106 -18 25 -35 60 -39 77 -6 28 -367 921 -434 1073
-30 67 -56 97 -108 121 -49 23 -94 24 -142 4 -20 -9 -107 -69 -193 -134 l-156
-119 -25 31 c-20 25 -33 31 -62 31 l-37 0 -450 598 c-248 328 -454 608 -460
620 -5 13 -25 126 -45 253 -20 126 -44 246 -52 267 -23 58 -65 83 -143 85 -36
1 -83 9 -105 17 -50 19 -71 19 -112 1z m87 -176 c12 -16 21 -32 19 -34 -27
-26 -296 -222 -301 -219 -4 3 -16 18 -28 34 l-21 29 147 111 c81 60 151 110
155 110 4 0 17 -14 29 -31z m184 -266 c14 -83 26 -160 26 -171 0 -23 -122
-119 -145 -114 -7 1 -80 34 -161 74 -133 63 -146 72 -124 80 35 13 357 256
364 275 4 9 8 14 11 12 2 -3 15 -73 29 -156z m535 -908 c237 -316 431 -579
431 -584 0 -5 -19 -23 -41 -40 l-42 -30 -408 542 c-225 298 -422 561 -439 584
l-30 41 42 31 c23 17 45 31 49 31 3 0 200 -259 438 -575z m1119 -444 c10 -6
372 -870 372 -887 0 -1 -24 8 -53 22 -208 95 -471 90 -682 -12 -113 -56 -239
-164 -305 -262 -15 -23 -16 -22 -200 123 -216 171 -235 188 -227 209 3 8 75
67 159 130 110 83 156 112 165 104 7 -5 62 -76 123 -158 111 -148 135 -169
177 -153 23 9 334 240 351 261 31 39 16 74 -103 232 -64 85 -114 157 -113 161
4 9 309 239 317 239 3 0 12 -4 19 -9z m-409 -396 c68 -91 122 -167 120 -169
-38 -31 -184 -136 -188 -136 -3 1 -61 75 -128 165 l-123 165 93 70 c50 38 94
70 97 70 3 0 61 -75 129 -165z m561 -572 c191 -49 357 -198 435 -389 34 -82
41 -88 146 -95 76 -5 102 -12 163 -42 90 -45 156 -113 199 -205 28 -59 32 -80
37 -181 5 -107 6 -115 30 -133 24 -17 31 -18 98 -6 135 23 270 -21 368 -119
51 -50 99 -134 110 -193 l7 -30 -1881 0 -1881 0 16 53 c46 157 195 277 367
294 80 8 91 15 120 71 26 52 85 110 138 138 21 11 68 19 130 23 67 4 102 11
112 21 8 8 22 48 30 88 30 145 115 254 246 315 51 25 81 32 150 35 47 2 93 8
102 13 9 5 37 40 63 79 150 226 430 332 695 263z"/>
<path d="M2854 1783 c-52 -10 -76 -83 -40 -122 10 -11 37 -21 66 -25 38 -5 55
-13 74 -37 14 -17 26 -39 26 -50 0 -31 44 -69 80 -69 121 0 73 215 -63 278
-44 21 -107 32 -143 25z"/>
<path d="M2092 1413 c-23 -8 -66 -37 -96 -64 -62 -56 -96 -125 -103 -208 -4
-47 -2 -59 16 -78 46 -49 131 -16 131 51 0 41 36 112 69 136 16 10 50 24 77
30 77 17 81 19 94 50 13 31 7 61 -16 85 -20 20 -114 19 -172 -2z"/>
</g>
</svg>
