<?xml version="1.0" standalone="no"?>
<!DOCTYPE svg PUBLIC "-//W3C//DTD SVG 20010904//EN"
 "http://www.w3.org/TR/2001/REC-SVG-20010904/DTD/svg10.dtd">
<svg version="1.0" xmlns="http://www.w3.org/2000/svg"
 width="512.000000pt" height="512.000000pt" viewBox="0 0 512.000000 512.000000"
 preserveAspectRatio="xMidYMid meet">
<metadata>
Created by potrace 1.16, written by Peter Selinger 2001-2019
</metadata>
<g transform="translate(0.000000,512.000000) scale(0.100000,-0.100000)"
fill="#000000" stroke="none">
<path d="M3883 4639 c-66 -25 -138 -96 -154 -150 -7 -21 -17 -44 -24 -49 -6
-5 -263 -113 -571 -240 l-559 -230 -205 0 c-231 0 -265 -8 -313 -71 -39 -52
-47 -100 -47 -275 l0 -162 -122 -4 c-139 -5 -170 -16 -215 -75 l-28 -36 -3
-248 c-2 -186 -6 -250 -16 -258 -9 -7 -253 -11 -768 -13 l-755 -3 -37 -29
c-57 -43 -66 -75 -66 -229 0 -122 2 -136 20 -152 27 -24 83 -24 110 0 18 16
20 30 20 121 0 56 3 109 6 118 6 14 80 16 736 16 498 0 743 3 773 11 53 13
111 68 125 118 5 20 10 138 10 263 l0 228 23 5 c12 3 265 4 562 3 l540 -3 122
-245 122 -245 0 -476 c1 -426 -1 -478 -15 -483 -9 -3 -683 -6 -1499 -6 -1457
0 -1484 0 -1495 19 -6 11 -10 90 -10 185 0 157 -1 166 -22 186 -28 26 -78 26
-106 0 -21 -20 -22 -28 -22 -221 0 -219 3 -235 60 -282 17 -15 47 -31 68 -37
24 -6 275 -10 700 -10 l662 0 0 -74 0 -75 -467 -3 c-448 -3 -470 -5 -523 -25
-174 -67 -298 -194 -346 -358 -24 -79 -24 -220 0 -299 55 -186 226 -342 410
-375 41 -8 596 -11 1760 -11 1869 0 1761 -3 1889 61 80 41 194 155 230 231
104 219 65 454 -102 618 -36 36 -94 80 -128 98 -111 58 -146 62 -675 62 l-478
0 0 74 0 73 76 6 c91 7 143 36 174 97 20 39 20 53 18 558 l-3 517 -131 265
c-136 276 -162 314 -226 327 -20 4 -28 11 -26 22 2 10 181 111 458 259 250
134 460 246 466 248 11 5 631 -1173 622 -1182 -3 -2 -162 -72 -354 -154 -396
-171 -414 -183 -414 -266 0 -94 0 -94 398 -274 196 -89 384 -169 417 -177 75
-19 145 -12 239 26 194 78 262 126 313 223 25 48 28 63 28 153 l0 100 -122
280 c-67 154 -181 422 -253 595 -72 173 -138 329 -146 347 -38 78 -154 58
-154 -28 0 -12 66 -179 146 -371 81 -192 145 -350 143 -351 -16 -10 -82 -37
-84 -35 -2 2 -177 336 -389 744 -290 555 -386 749 -386 775 0 103 121 155 193
84 14 -15 73 -142 146 -318 67 -160 132 -300 143 -309 47 -41 128 -6 128 56 0
25 -193 502 -246 608 -66 132 -214 189 -351 137z m-103 -469 c12 -23 20 -43
18 -45 -2 -1 -174 -94 -383 -205 -209 -111 -403 -215 -432 -231 l-52 -29 -32
67 c-17 36 -50 86 -72 110 -22 24 -38 45 -36 47 2 1 213 88 469 193 l464 191
18 -28 c9 -16 27 -48 38 -70z m-1160 -381 c102 -46 151 -123 158 -246 l5 -83
-307 0 -306 0 0 156 c0 88 4 164 10 175 10 18 23 19 203 19 171 0 197 -3 237
-21z m2259 -1231 c93 -213 99 -250 56 -325 -22 -37 -39 -49 -118 -87 -149 -71
-189 -82 -239 -69 -24 7 -182 75 -352 152 -279 126 -307 141 -285 150 167 74
854 369 856 368 0 -1 38 -86 82 -189z m-1979 -953 l0 -75 -625 0 -625 0 0 75
0 75 625 0 625 0 0 -75z m1202 -263 c81 -33 160 -108 200 -190 30 -60 33 -75
33 -157 0 -78 -4 -98 -28 -150 -32 -69 -104 -147 -162 -177 -95 -49 -29 -48
-1825 -48 -1862 0 -1748 -4 -1854 64 -87 56 -146 145 -165 252 -34 187 104
386 293 424 22 4 808 7 1746 6 l1705 -1 57 -23z"/>
<path d="M633 1264 c-23 -9 -61 -32 -85 -53 -119 -106 -131 -287 -25 -407 57
-65 122 -94 214 -94 309 0 399 414 118 546 -59 28 -155 31 -222 8z m168 -160
c39 -20 73 -91 63 -131 -17 -66 -64 -103 -132 -103 -88 0 -148 100 -107 180
34 66 109 89 176 54z"/>
<path d="M3810 1271 c-50 -16 -89 -41 -128 -86 -128 -145 -78 -375 98 -454 65
-30 169 -28 235 3 276 128 187 549 -115 545 -36 0 -76 -4 -90 -8z m150 -167
c58 -35 78 -110 46 -172 -20 -39 -63 -62 -116 -62 -32 0 -48 7 -78 34 -34 32
-37 38 -37 91 0 53 3 59 37 91 30 27 46 34 79 34 22 0 53 -7 69 -16z"/>
<path d="M1072 1180 c-24 -22 -26 -51 -13 -135 5 -29 4 -78 -1 -117 -6 -37 -7
-79 -4 -93 15 -58 -34 -56 1281 -53 l1204 3 23 22 c18 19 22 31 18 70 -5 61
-5 175 0 235 3 36 0 52 -14 67 l-19 21 -1227 0 c-1220 0 -1226 0 -1248 -20z
m2338 -190 l0 -50 -1093 0 -1093 0 0 50 1 50 1093 0 1092 0 0 -50z"/>
<path d="M1975 3201 c-11 -5 -29 -19 -40 -31 -18 -20 -20 -39 -23 -208 -2
-102 -1 -201 3 -221 5 -29 34 -64 148 -178 77 -78 155 -149 173 -158 27 -13
88 -15 381 -15 311 0 352 2 383 18 52 26 62 67 58 237 l-4 140 -99 200 c-74
147 -107 203 -125 212 -29 15 -821 18 -855 4z m848 -314 l77 -162 0 -87 0 -88
-297 0 -298 0 -117 117 -118 118 0 132 0 133 338 0 337 -1 78 -162z"/>
<path d="M570 2538 c-18 -10 -51 -65 -122 -208 -103 -206 -114 -244 -78 -280
26 -26 90 -27 113 -2 29 32 197 392 197 421 0 57 -60 94 -110 69z"/>
<path d="M921 2537 c-18 -9 -50 -64 -123 -213 -54 -111 -98 -211 -98 -222 0
-10 9 -31 21 -46 16 -20 29 -26 58 -26 20 0 45 6 54 13 17 12 207 401 207 424
0 25 -23 61 -47 72 -29 13 -41 13 -72 -2z"/>
<path d="M1280 2538 c-18 -10 -51 -66 -122 -208 -103 -206 -114 -244 -78 -280
26 -26 90 -27 113 -2 28 30 197 393 197 422 0 56 -60 93 -110 68z"/>
<path d="M1950 2280 c-28 -28 -27 -90 1 -116 17 -15 40 -20 117 -23 114 -4
164 9 180 44 17 37 15 59 -9 89 -20 26 -22 26 -145 26 -111 0 -126 -2 -144
-20z"/>
</g>
</svg>
