<?xml version="1.0" standalone="no"?>
<!DOCTYPE svg PUBLIC "-//W3C//DTD SVG 20010904//EN"
 "http://www.w3.org/TR/2001/REC-SVG-20010904/DTD/svg10.dtd">
<svg version="1.0" xmlns="http://www.w3.org/2000/svg"
 width="512.000000pt" height="512.000000pt" viewBox="0 0 512.000000 512.000000"
 preserveAspectRatio="xMidYMid meet">
<metadata>
Created by potrace 1.16, written by Peter Selinger 2001-2019
</metadata>
<g transform="translate(0.000000,512.000000) scale(0.100000,-0.100000)"
fill="#000000" stroke="none">
<path d="M970 4463 c-48 -33 -365 -324 -387 -355 -22 -30 -23 -38 -23 -279 l0
-249 -235 0 c-250 0 -292 -6 -314 -48 -7 -14 -11 -122 -11 -310 l0 -289 26
-27 27 -26 253 0 254 0 0 -470 0 -470 -224 0 c-123 0 -237 -3 -255 -6 -17 -4
-42 -18 -56 -32 l-25 -25 0 -289 c0 -318 1 -326 62 -347 19 -7 124 -11 264
-11 l234 0 0 -256 c0 -265 2 -283 44 -316 19 -16 57 -18 424 -18 444 0 439 -1
461 62 7 19 11 128 11 279 l0 249 295 0 295 0 0 -249 c0 -151 4 -260 11 -279
22 -63 17 -62 459 -62 442 0 437 -1 459 62 7 19 11 128 11 279 l0 249 295 0
295 0 0 -249 c0 -151 4 -260 11 -279 22 -63 17 -62 461 -62 367 0 405 2 424
18 42 33 44 51 44 316 l0 256 234 0 c140 0 245 4 264 11 61 21 62 29 62 347
l0 289 -25 25 c-14 14 -39 28 -56 32 -18 3 -132 6 -255 6 l-224 0 0 465 0 465
224 0 c123 0 237 3 255 6 17 4 42 18 56 32 l25 25 0 289 c0 318 -1 326 -62
347 -19 7 -124 11 -264 11 l-234 0 0 249 c0 241 -1 249 -23 279 -24 34 -365
345 -396 362 -36 19 -87 12 -123 -17 -109 -90 -366 -331 -380 -357 -16 -27
-18 -61 -18 -273 l0 -243 -295 0 -295 0 0 249 c0 241 -1 249 -22 279 -22 31
-340 321 -388 355 -35 24 -91 22 -126 -5 -82 -64 -371 -335 -386 -362 -16 -27
-18 -61 -18 -273 l0 -243 -295 0 -295 0 0 243 c0 212 -2 246 -17 273 -15 26
-272 267 -381 357 -39 32 -94 36 -132 10z m193 -345 l127 -113 0 -1577 0
-1578 -260 0 -260 0 0 1578 1 1577 125 113 c69 61 129 112 134 112 4 0 64 -51
133 -112z m1537 -5 l119 -108 1 -1577 0 -1578 -260 0 -260 0 1 1578 1 1577
125 113 c77 69 131 111 140 108 8 -3 68 -54 133 -113z m1530 0 l120 -108 0
-1577 0 -1578 -260 0 -260 0 0 1574 0 1575 127 116 c73 67 132 114 140 111 7
-3 67 -54 133 -113z m-3670 -888 l0 -145 -180 0 -180 0 0 145 0 145 180 0 180
0 0 -145z m1530 0 l0 -145 -295 0 -295 0 0 145 0 145 295 0 295 0 0 -145z
m1530 0 l0 -145 -295 0 -295 0 0 145 0 145 295 0 295 0 0 -145z m1290 0 l0
-145 -175 0 -175 0 0 145 0 145 175 0 175 0 0 -145z m-2820 -825 l0 -470 -295
0 -295 0 0 470 0 470 295 0 295 0 0 -470z m1530 0 l0 -470 -295 0 -295 0 0
470 0 470 295 0 295 0 0 -470z m-3060 -815 l0 -145 -180 0 -180 0 0 145 0 145
180 0 180 0 0 -145z m1530 -5 l0 -140 -295 0 -295 0 0 140 0 140 295 0 295 0
0 -140z m1530 0 l0 -140 -295 0 -295 0 0 140 0 140 295 0 295 0 0 -140z m1290
0 l0 -140 -175 0 -175 0 0 140 0 140 175 0 175 0 0 -140z"/>
<path d="M969 3335 c-57 -31 -80 -123 -44 -178 18 -28 71 -57 105 -57 34 0 87
29 105 57 22 33 21 104 -1 138 -34 51 -110 70 -165 40z"/>
<path d="M993 1703 c-34 -7 -83 -60 -84 -91 -3 -77 8 -104 54 -132 86 -53 189
5 189 106 0 82 -72 135 -159 117z"/>
<path d="M2499 3335 c-57 -31 -80 -123 -44 -178 18 -28 71 -57 105 -57 34 0
87 29 105 57 23 34 22 102 0 136 -35 53 -110 72 -166 42z"/>
<path d="M2523 1703 c-32 -6 -83 -63 -84 -92 -3 -73 14 -112 62 -137 57 -29
141 -6 170 47 16 30 15 94 -1 125 -24 44 -89 69 -147 57z"/>
<path d="M4029 3335 c-40 -22 -59 -58 -59 -113 0 -40 5 -53 31 -79 52 -54 125
-55 178 -3 99 100 -26 262 -150 195z"/>
<path d="M4055 1702 c-79 -27 -112 -125 -65 -192 40 -56 136 -66 186 -19 42
40 50 97 21 156 -20 43 -94 71 -142 55z"/>
</g>
</svg>
