<?xml version="1.0" standalone="no"?>
<!DOCTYPE svg PUBLIC "-//W3C//DTD SVG 20010904//EN"
 "http://www.w3.org/TR/2001/REC-SVG-20010904/DTD/svg10.dtd">
<svg version="1.0" xmlns="http://www.w3.org/2000/svg"
 width="512.000000pt" height="512.000000pt" viewBox="0 0 512.000000 512.000000"
 preserveAspectRatio="xMidYMid meet">
<metadata>
Created by potrace 1.16, written by Peter Selinger 2001-2019
</metadata>
<g transform="translate(0.000000,512.000000) scale(0.100000,-0.100000)"
fill="#000000" stroke="none">
<path d="M2462 5099 c-78 -39 -159 -156 -213 -309 -12 -36 -26 -70 -31 -77 -7
-8 -32 0 -93 28 -89 42 -217 79 -271 79 -104 0 -190 -48 -225 -124 -30 -67
-26 -178 12 -290 16 -50 41 -110 55 -133 13 -23 24 -48 24 -55 0 -7 -35 -25
-83 -41 -159 -55 -267 -131 -311 -219 -45 -89 -30 -170 45 -252 61 -66 136
-111 257 -152 53 -19 98 -34 99 -34 1 0 -18 -42 -42 -92 -53 -113 -75 -195
-75 -280 0 -114 34 -177 114 -214 97 -45 232 -29 399 48 52 24 91 37 96 32 5
-5 16 -34 26 -64 32 -102 84 -198 141 -259 30 -33 64 -63 75 -66 19 -6 19 -29
19 -1289 0 -1283 0 -1283 21 -1310 26 -33 88 -37 119 -6 20 20 20 33 20 1308
l0 1287 40 23 c75 43 152 163 201 317 12 39 23 71 24 73 1 1 44 -18 96 -43
114 -54 191 -75 281 -75 107 0 168 33 211 115 46 87 18 272 -64 424 -16 30
-29 58 -29 61 0 4 35 20 78 35 165 58 285 142 325 227 22 47 22 132 -2 183
-39 86 -173 178 -329 225 -40 12 -72 26 -72 31 0 5 15 40 34 77 103 204 111
377 21 467 -37 37 -113 65 -174 65 -63 0 -170 -28 -254 -66 -127 -56 -121 -57
-147 23 -52 155 -137 281 -222 324 -52 26 -140 25 -196 -2z m161 -179 c46 -50
76 -110 117 -235 24 -72 42 -109 66 -132 48 -49 83 -45 236 28 138 66 232 90
280 71 60 -24 44 -132 -48 -324 -59 -122 -64 -156 -34 -205 23 -38 53 -55 162
-89 151 -48 258 -119 258 -171 0 -54 -129 -136 -287 -182 -84 -25 -127 -57
-143 -107 -15 -45 -9 -68 50 -189 75 -152 95 -257 59 -302 -17 -19 -106 -16
-170 6 -30 10 -96 39 -148 65 -166 81 -231 55 -281 -115 -44 -145 -129 -279
-179 -279 -20 0 -79 60 -109 110 -11 19 -36 81 -56 137 -59 171 -77 193 -157
193 -36 0 -66 -10 -131 -44 -151 -80 -284 -109 -322 -70 -38 37 -11 169 66
315 47 91 57 143 34 191 -20 43 -48 59 -177 104 -57 20 -123 47 -146 61 -47
27 -103 86 -103 108 0 46 110 119 250 166 165 54 189 74 190 150 0 35 -12 70
-49 147 -84 171 -105 284 -59 316 45 32 144 10 294 -65 119 -59 159 -67 202
-45 46 24 67 57 97 153 50 163 123 273 180 273 14 0 36 -15 58 -40z"/>
<path d="M2485 4379 c-350 -45 -547 -430 -389 -757 51 -105 201 -235 287 -249
26 -4 39 0 60 18 28 26 35 50 24 91 -5 20 -23 36 -67 59 -73 39 -133 102 -168
177 -23 49 -27 70 -27 147 0 79 4 97 29 149 53 108 147 181 268 205 188 39
391 -109 417 -304 21 -156 -51 -295 -194 -376 -60 -34 -75 -53 -75 -94 0 -32
41 -75 72 -75 34 0 116 42 175 89 64 52 134 154 163 241 30 88 30 227 1 321
-76 242 -317 392 -576 358z"/>
<path d="M1180 3041 c-115 -35 -206 -164 -240 -338 -7 -35 -14 -63 -17 -63 -2
0 -29 13 -61 29 -87 44 -157 61 -246 61 -57 0 -93 -6 -121 -19 -159 -74 -165
-287 -14 -507 l28 -41 -68 -21 c-126 -41 -242 -126 -281 -207 -25 -52 -26
-136 -1 -190 82 -182 463 -272 799 -189 114 28 259 102 333 171 l26 24 53 -58
c82 -89 208 -249 266 -338 57 -88 138 -237 149 -274 l7 -24 -33 26 c-53 40
-176 95 -264 117 -110 28 -279 29 -390 0 -98 -24 -216 -83 -267 -131 -33 -31
-38 -42 -38 -81 0 -96 82 -267 175 -367 95 -101 150 -141 196 -141 81 0 109
82 47 137 -108 94 -176 172 -211 242 -20 40 -37 82 -37 91 0 36 131 92 253
109 257 36 532 -110 648 -343 23 -47 39 -91 36 -100 -9 -23 -124 -73 -211 -90
-46 -10 -113 -15 -163 -14 -79 3 -86 1 -104 -21 -26 -32 -25 -82 4 -109 53
-50 291 -35 440 28 39 16 72 28 74 26 2 -2 7 -90 10 -195 5 -169 9 -195 25
-217 26 -32 88 -34 119 -3 21 21 22 27 16 213 -14 408 -83 716 -226 1001 l-66
131 58 18 c163 52 306 208 352 386 22 83 16 232 -11 305 -27 70 -64 88 -159
80 -139 -13 -272 -78 -361 -179 -49 -56 -110 -168 -120 -222 -3 -19 -9 -34
-13 -34 -3 0 -37 33 -74 74 l-67 75 35 58 c96 159 130 299 122 507 -6 168 -35
296 -94 408 -78 152 -205 232 -313 199z m87 -171 c61 -37 119 -153 149 -300
23 -115 15 -308 -16 -400 -89 -263 -304 -440 -583 -479 -90 -13 -283 1 -352
24 -102 35 -165 81 -165 121 0 47 81 114 180 149 25 9 86 25 135 36 150 33
162 72 59 195 -72 88 -133 199 -141 262 -7 51 14 87 55 95 65 13 217 -43 325
-120 65 -46 96 -51 132 -21 25 22 28 33 36 115 14 158 53 269 110 318 37 30
36 30 76 5z m819 -906 c36 -192 -125 -420 -312 -442 l-41 -4 -7 49 c-26 198
138 402 346 432 4 1 10 -15 14 -35z"/>
<path d="M3816 3034 c-103 -33 -205 -180 -256 -369 -31 -115 -39 -341 -16
-456 20 -95 60 -197 111 -282 l35 -58 -67 -75 c-37 -41 -71 -74 -74 -74 -4 0
-10 15 -13 34 -10 54 -71 166 -120 222 -84 96 -197 155 -333 176 -89 13 -142
1 -167 -37 -44 -68 -59 -236 -30 -349 45 -173 195 -337 354 -383 l55 -17 -66
-131 c-143 -285 -212 -593 -226 -1001 -6 -186 -5 -192 16 -213 31 -31 93 -29
119 3 16 22 20 48 25 217 3 105 8 193 10 195 2 2 35 -10 75 -26 217 -92 480
-71 707 54 98 54 238 197 288 293 51 97 77 176 77 231 0 39 -5 50 -38 82 -50
47 -168 105 -268 130 -109 29 -279 29 -389 0 -88 -22 -211 -77 -264 -117 l-33
-26 7 24 c12 42 95 191 160 289 71 106 144 199 242 308 l66 73 26 -24 c41 -38
116 -86 186 -118 57 -27 69 -29 98 -20 34 11 57 44 57 79 0 31 -28 58 -95 91
-137 68 -249 180 -315 316 -52 109 -70 190 -70 319 0 218 76 432 170 481 36
19 58 10 94 -38 48 -63 86 -202 86 -312 0 -50 4 -60 30 -87 38 -37 67 -34 137
15 108 77 260 133 325 120 41 -8 62 -44 55 -95 -8 -63 -69 -174 -141 -262
-103 -122 -91 -162 59 -195 153 -33 239 -73 289 -132 33 -39 33 -69 -1 -101
-62 -58 -168 -91 -326 -104 -77 -6 -90 -10 -107 -32 -23 -28 -25 -50 -9 -86
18 -39 60 -48 173 -36 175 18 293 61 378 138 105 95 105 243 -1 346 -51 49
-143 102 -222 128 l-68 21 28 41 c122 178 144 348 58 452 -45 54 -96 74 -193
74 -89 0 -159 -17 -246 -61 -32 -16 -59 -29 -61 -29 -3 0 -10 28 -17 63 -27
142 -106 274 -189 316 -53 28 -118 33 -175 15z m-648 -1075 c146 -66 246 -239
226 -392 l-7 -49 -41 4 c-150 18 -301 182 -313 341 -3 36 -3 81 1 101 6 33 9
35 39 30 18 -4 60 -19 95 -35z m806 -915 c77 -19 170 -66 174 -89 7 -35 -68
-165 -138 -239 -152 -160 -374 -233 -581 -191 -90 18 -207 67 -216 91 -3 9 13
53 36 100 130 261 435 399 725 328z"/>
</g>
</svg>
