<?xml version="1.0" standalone="no"?>
<!DOCTYPE svg PUBLIC "-//W3C//DTD SVG 20010904//EN"
 "http://www.w3.org/TR/2001/REC-SVG-20010904/DTD/svg10.dtd">
<svg version="1.0" xmlns="http://www.w3.org/2000/svg"
 width="512.000000pt" height="512.000000pt" viewBox="0 0 512.000000 512.000000"
 preserveAspectRatio="xMidYMid meet">
<metadata>
Created by potrace 1.16, written by Peter Selinger 2001-2019
</metadata>
<g transform="translate(0.000000,512.000000) scale(0.100000,-0.100000)"
fill="#000000" stroke="none">
<path d="M2531 5009 c-49 -20 -50 -26 -51 -317 l0 -273 25 -24 c15 -16 36 -25
55 -25 19 0 40 9 55 25 l25 24 0 274 c0 261 -1 274 -20 295 -12 12 -25 22 -30
22 -4 0 -14 2 -22 4 -7 3 -24 0 -37 -5z"/>
<path d="M2112 4883 c-7 -3 -19 -18 -28 -35 -21 -40 -7 -76 45 -123 59 -54 91
-128 98 -231 5 -75 9 -87 31 -104 49 -39 113 -16 128 47 4 15 2 68 -4 117 -14
116 -55 200 -133 279 -48 47 -63 57 -91 56 -18 0 -39 -3 -46 -6z"/>
<path d="M2901 4857 c-50 -40 -100 -108 -131 -180 -18 -40 -24 -77 -28 -158
l-4 -106 27 -21 c34 -27 75 -28 105 -4 20 16 24 32 30 113 9 112 22 142 96
221 63 66 70 103 29 143 -34 35 -73 32 -124 -8z"/>
<path d="M1695 4739 c-134 -18 -245 -119 -280 -254 -10 -39 -15 -106 -15 -198
0 -159 -15 -248 -66 -382 -41 -109 -42 -138 -8 -172 21 -21 32 -24 61 -20 19
3 41 11 48 17 21 17 94 234 110 327 8 47 15 145 15 217 0 151 9 193 52 242 42
47 81 66 139 66 78 -1 117 -28 194 -137 26 -36 55 -70 65 -75 32 -17 70 -11
95 15 38 37 32 71 -27 154 -70 101 -111 139 -182 171 -68 31 -126 39 -201 29z"/>
<path d="M3305 4739 c-109 -14 -168 -54 -260 -176 -53 -71 -65 -93 -65 -124 0
-44 35 -79 79 -79 35 1 48 12 113 101 31 41 68 83 82 92 88 58 217 24 265 -71
15 -30 19 -68 24 -202 6 -184 21 -273 74 -424 37 -108 66 -146 109 -146 28 0
84 49 84 73 0 7 -18 63 -39 123 -53 148 -61 198 -70 409 -6 169 -8 185 -34
237 -65 132 -209 207 -362 187z"/>
<path d="M1865 4251 c-181 -84 -162 -359 29 -416 27 -8 67 -15 89 -15 32 0 54
-11 123 -62 162 -117 194 -175 194 -355 l0 -103 -252 0 -251 0 -223 125 c-264
149 -288 160 -376 175 -176 31 -369 -55 -467 -209 -65 -101 -64 -95 -72 -571
-7 -472 -13 -536 -73 -710 -31 -91 -33 -133 -6 -160 26 -26 83 -27 109 -1 45
45 106 274 121 456 5 66 10 271 10 455 0 378 3 396 73 477 48 54 107 89 174
103 81 18 147 0 279 -73 108 -60 125 -77 82 -77 -33 0 -95 -38 -130 -80 -83
-96 -78 -239 12 -331 59 -62 117 -79 261 -79 l107 0 192 -141 c201 -148 253
-200 298 -297 45 -99 52 -144 52 -359 l0 -203 -1065 0 c-1159 0 -1101 3 -1139
-55 -15 -23 -17 -50 -14 -209 l3 -183 30 -49 c33 -53 104 -107 163 -124 20 -5
136 -10 257 -10 157 -1 224 -4 235 -13 9 -7 33 -40 53 -73 74 -123 216 -231
357 -270 59 -16 349 -31 394 -20 60 15 84 80 46 128 -19 25 -22 26 -192 31
-190 5 -248 18 -331 75 -52 37 -119 108 -143 153 -30 59 -58 90 -104 117 -45
27 -47 27 -290 32 -322 7 -320 6 -320 200 l0 110 2400 0 2400 0 0 -110 c0
-194 2 -193 -320 -200 -243 -5 -245 -5 -290 -32 -46 -27 -74 -58 -104 -117
-42 -80 -144 -166 -244 -204 -57 -22 -58 -22 -1119 -27 -991 -5 -1063 -6
-1080 -22 -25 -25 -22 -83 5 -111 20 -19 35 -22 128 -25 l106 -4 -4 -78 c-8
-139 -71 -234 -230 -347 -49 -36 -83 -68 -93 -90 -31 -66 4 -143 73 -163 51
-14 1493 -14 1544 0 69 20 104 97 73 163 -10 22 -44 54 -93 90 -159 113 -222
208 -230 347 l-4 79 443 4 c486 4 488 4 617 68 80 39 190 142 239 223 20 33
44 66 53 73 11 9 78 12 235 13 121 0 237 5 257 10 59 17 130 71 163 124 l30
49 3 183 c3 159 1 186 -14 209 -38 58 20 55 -1139 55 l-1065 0 0 203 c0 215 7
260 52 359 45 97 97 149 298 297 l192 141 107 0 c144 0 202 17 261 79 90 92
95 235 12 331 -35 42 -97 80 -130 80 -43 0 -26 17 82 77 139 78 197 91 288 68
99 -25 160 -74 210 -168 23 -41 23 -51 29 -482 6 -387 9 -452 27 -536 28 -134
79 -281 103 -301 30 -26 81 -23 107 5 29 30 28 69 -3 150 -13 36 -34 112 -46
169 -20 94 -23 142 -29 543 -5 383 -8 446 -23 485 -100 257 -397 378 -644 261
-32 -16 -151 -80 -265 -145 l-208 -116 -250 0 -250 0 0 103 c0 180 32 238 194
355 69 51 91 62 123 62 22 0 62 7 89 15 191 57 210 332 29 416 -38 17 -79 19
-695 19 -616 0 -657 -2 -695 -19z m1337 -158 c27 -24 23 -68 -8 -92 -26 -21
-35 -21 -634 -21 -599 0 -608 0 -634 21 -30 24 -34 63 -9 91 15 17 48 18 641
18 568 0 627 -2 644 -17z m-413 -305 c-92 -92 -129 -198 -129 -369 l0 -119
-100 0 -100 0 0 119 c0 171 -37 277 -129 369 l-33 32 262 0 262 0 -33 -32z
m907 -681 c31 -36 31 -78 0 -114 l-24 -28 -381 -3 -380 -3 -21 -26 c-25 -32
-26 -74 -1 -104 18 -22 28 -24 145 -29 l125 -5 -103 -76 c-163 -121 -253 -248
-297 -417 -16 -63 -19 -111 -19 -289 l0 -213 -180 0 -180 0 0 213 c0 243 -12
312 -73 433 -53 104 -121 181 -239 269 l-106 80 313 5 c290 5 314 6 334 24 25
23 28 82 7 112 -14 18 -35 19 -591 24 l-577 5 -24 28 c-39 46 -25 115 30 137
11 5 513 8 1119 7 l1099 -2 24 -28z m-776 -2385 c0 -159 83 -329 207 -426 l46
-36 -613 0 -613 0 46 36 c124 97 207 267 207 426 l0 68 360 0 360 0 0 -68z"/>
<path d="M983 3210 c-12 -5 -26 -18 -32 -29 -7 -13 -11 -150 -11 -398 -1 -385
-6 -494 -37 -686 -16 -106 -16 -108 4 -135 25 -34 79 -41 112 -15 24 20 34 55
58 208 12 76 17 209 20 555 5 432 4 457 -14 478 -21 25 -68 36 -100 22z"/>
<path d="M4063 3210 c-44 -18 -45 -27 -40 -509 4 -453 12 -566 48 -703 18 -68
88 -90 136 -42 28 28 28 27 -3 209 -12 69 -17 196 -21 548 -4 406 -7 459 -21
477 -20 23 -68 33 -99 20z"/>
<path d="M1260 2630 c-19 -19 -20 -33 -20 -338 l0 -319 23 -21 c29 -27 77 -28
108 -3 l24 19 3 314 c3 307 2 315 -18 341 -27 34 -89 38 -120 7z"/>
<path d="M3740 2623 c-20 -26 -21 -34 -18 -341 l3 -314 24 -19 c32 -26 82 -25
109 4 22 23 22 29 22 340 0 304 -1 318 -20 337 -31 31 -93 27 -120 -7z"/>
</g>
</svg>
