<?xml version="1.0" standalone="no"?>
<!DOCTYPE svg PUBLIC "-//W3C//DTD SVG 20010904//EN"
 "http://www.w3.org/TR/2001/REC-SVG-20010904/DTD/svg10.dtd">
<svg version="1.0" xmlns="http://www.w3.org/2000/svg"
 width="512.000000pt" height="512.000000pt" viewBox="0 0 512.000000 512.000000"
 preserveAspectRatio="xMidYMid meet">
<metadata>
Created by potrace 1.16, written by Peter Selinger 2001-2019
</metadata>
<g transform="translate(0.000000,512.000000) scale(0.100000,-0.100000)"
fill="#000000" stroke="none">
<path d="M1005 4559 c-44 -11 -118 -38 -164 -61 -154 -76 -197 -144 -132 -209
38 -38 74 -37 137 3 121 77 223 109 354 109 351 1 633 -283 670 -675 6 -54 15
-105 21 -112 6 -8 42 -35 80 -59 291 -194 367 -598 168 -896 -47 -69 -146
-162 -207 -193 -26 -13 -79 -33 -118 -45 -76 -22 -95 -38 -139 -116 -46 -80
-149 -176 -235 -218 -41 -20 -90 -40 -107 -43 l-33 -6 1 348 1 349 198 180
c109 99 205 194 214 211 29 58 -10 124 -75 124 -41 0 -59 -14 -248 -189 l-91
-83 0 279 c0 277 0 280 -22 300 -13 11 -32 23 -42 27 -27 9 -84 -12 -99 -37
-9 -16 -13 -147 -17 -509 l-5 -488 -143 130 c-133 122 -145 130 -183 130 -48
0 -89 -37 -89 -80 0 -42 31 -76 233 -261 l187 -171 0 -133 0 -133 -42 9 c-133
29 -283 146 -364 284 -36 62 -47 72 -90 89 -144 56 -194 85 -263 155 -77 78
-149 211 -171 315 -15 72 -15 214 -1 278 37 164 133 306 268 395 58 39 73 69
73 145 0 75 28 194 66 283 38 90 41 120 18 153 -22 32 -55 43 -98 31 -31 -9
-40 -19 -76 -92 -43 -87 -75 -201 -87 -308 -8 -65 -9 -67 -63 -110 -120 -98
-209 -232 -260 -394 -34 -106 -40 -319 -12 -436 61 -253 230 -459 451 -550 74
-30 85 -38 113 -84 44 -72 153 -181 228 -230 75 -49 170 -88 253 -105 l57 -11
0 -117 0 -117 -47 -22 c-49 -22 -127 -89 -153 -131 -11 -17 -32 -26 -83 -37
-37 -8 -90 -26 -118 -42 -93 -50 -192 -180 -213 -278 -5 -23 -18 -36 -54 -55
-76 -40 -174 -145 -215 -231 -19 -41 -38 -82 -41 -91 -4 -15 -18 -18 -79 -18
-64 0 -76 -3 -95 -23 -31 -33 -30 -96 1 -125 l23 -22 2513 0 2512 0 24 25 c34
33 34 87 0 120 l-24 25 -561 0 -560 0 2 256 3 256 71 18 c182 46 355 173 459
335 29 46 41 55 87 70 280 92 480 330 539 642 15 81 7 300 -15 377 -24 84 -58
167 -97 233 -43 71 -166 203 -224 240 -41 26 -45 31 -51 83 -26 229 -125 439
-280 593 -171 170 -364 251 -599 250 -135 0 -216 -16 -331 -64 -106 -44 -134
-70 -134 -123 0 -32 6 -48 23 -64 34 -32 82 -28 169 13 332 158 721 5 893
-350 50 -102 71 -178 80 -280 12 -137 9 -131 88 -182 104 -67 180 -151 233
-258 57 -116 76 -196 76 -315 0 -115 -19 -195 -74 -310 -33 -68 -58 -102 -123
-166 -87 -87 -163 -131 -269 -159 -71 -18 -84 -28 -131 -109 -67 -115 -191
-220 -311 -266 -92 -34 -84 -66 -84 348 l0 367 212 195 c154 141 215 204 221
226 18 62 -39 123 -102 109 -18 -4 -84 -57 -175 -141 -80 -74 -148 -134 -151
-134 -3 0 -5 118 -5 263 0 299 -5 332 -54 352 -38 16 -72 10 -103 -18 l-23
-20 0 -525 0 -524 -57 53 c-284 259 -280 257 -342 224 -33 -16 -41 -33 -41
-80 0 -42 -2 -40 243 -264 l197 -182 0 -140 0 -139 -27 6 c-164 36 -309 139
-393 279 -49 82 -80 112 -131 125 -317 86 -515 456 -428 801 43 169 128 292
270 390 65 44 79 73 79 160 0 113 47 266 121 389 47 80 49 111 10 151 -67 67
-129 25 -211 -145 -53 -110 -86 -223 -96 -334 -7 -72 -7 -73 -55 -108 -181
-133 -302 -369 -316 -620 -21 -376 188 -718 511 -835 57 -21 64 -28 106 -92
56 -87 167 -192 256 -245 67 -40 192 -85 267 -97 l37 -6 0 -254 0 -255 -25 0
c-21 0 -25 5 -25 28 0 37 -25 122 -58 191 -37 81 -147 187 -239 231 -63 30
-77 42 -113 98 -60 90 -161 166 -264 197 -36 11 -41 17 -62 75 -63 174 -214
295 -402 322 -186 26 -379 -57 -483 -208 -25 -37 -33 -42 -81 -47 -114 -12
-253 -91 -323 -183 l-31 -41 -28 53 c-52 99 -159 178 -279 204 l-58 13 3 105
3 104 73 19 c181 46 356 176 445 330 19 33 33 42 97 65 192 67 345 210 435
408 46 101 66 185 72 311 13 273 -104 535 -306 685 l-67 50 -12 85 c-46 317
-246 590 -520 712 -145 64 -356 81 -517 42z m1598 -2894 c63 -18 142 -76 179
-132 16 -23 37 -76 48 -119 22 -89 40 -109 110 -119 101 -15 200 -86 241 -173
26 -56 57 -92 78 -92 32 0 137 -59 180 -100 46 -45 88 -125 98 -185 l6 -35
-640 0 -640 0 -7 46 c-16 121 -123 261 -242 318 -44 20 -66 38 -79 63 -11 19
-43 57 -73 84 l-53 48 42 46 c59 63 146 104 240 112 91 7 104 13 130 64 75
148 230 218 382 174z m-1258 -216 c55 -15 140 -102 155 -161 32 -119 33 -119
148 -148 54 -14 125 -77 157 -141 17 -33 33 -50 57 -58 71 -27 97 -41 132 -72
37 -32 86 -114 86 -144 0 -13 -92 -15 -845 -15 -465 0 -845 4 -845 8 0 18 59
99 95 130 20 19 67 48 102 65 70 33 75 40 93 129 25 123 116 203 246 215 75 7
84 13 147 103 59 83 166 118 272 89z"/>
</g>
</svg>
