<?xml version="1.0" standalone="no"?>
<!DOCTYPE svg PUBLIC "-//W3C//DTD SVG 20010904//EN"
 "http://www.w3.org/TR/2001/REC-SVG-20010904/DTD/svg10.dtd">
<svg version="1.0" xmlns="http://www.w3.org/2000/svg"
 width="512.000000pt" height="512.000000pt" viewBox="0 0 512.000000 512.000000"
 preserveAspectRatio="xMidYMid meet">
<metadata>
Created by potrace 1.16, written by Peter Selinger 2001-2019
</metadata>
<g transform="translate(0.000000,512.000000) scale(0.100000,-0.100000)"
fill="#000000" stroke="none">
<path d="M3453 3486 c-10 -13 -52 -143 -92 -290 l-74 -266 -74 167 c-76 173
-104 213 -149 213 -60 0 -66 -10 -135 -245 -22 -77 -44 -144 -48 -148 -4 -4
-18 38 -31 95 -26 114 -49 148 -98 148 -17 0 -39 -8 -50 -17 -11 -10 -73 -144
-137 -298 -65 -154 -118 -281 -120 -283 -1 -1 -80 181 -174 405 -95 225 -180
416 -189 426 -22 25 -84 23 -108 -4 -18 -20 -19 -40 -20 -308 0 -253 -3 -296
-21 -378 -12 -50 -25 -99 -30 -107 -7 -12 -29 39 -83 189 -76 214 -94 245
-146 245 -52 0 -70 -34 -130 -245 -31 -110 -58 -201 -59 -203 -6 -7 -58 138
-81 226 -35 134 -43 315 -19 430 19 95 12 131 -31 150 -49 23 -82 5 -137 -75
-70 -99 -161 -260 -205 -361 l-36 -83 -32 83 c-36 91 -52 108 -99 108 -51 0
-69 -31 -118 -205 l-45 -160 -17 40 c-42 98 -101 206 -153 279 -118 165 -365
380 -438 380 -19 0 -42 -8 -54 -19 -28 -25 -24 -67 18 -230 109 -415 120 -883
32 -1313 -24 -120 -16 -162 39 -199 l34 -23 1303 0 1303 0 20 26 c36 45 20
105 -32 124 -20 7 -431 10 -1272 10 l-1242 0 18 102 c64 346 65 718 4 1083
-13 77 -23 141 -22 141 5 5 144 -160 179 -211 89 -132 159 -318 180 -477 14
-106 34 -138 88 -138 56 0 71 28 130 243 29 108 57 194 61 190 4 -5 22 -46 39
-93 34 -90 66 -130 105 -130 13 0 36 10 50 23 22 19 26 32 29 93 6 93 37 209
85 309 l38 80 7 -40 c34 -208 76 -345 161 -522 64 -134 80 -153 133 -153 49 0
67 32 122 225 29 99 53 181 54 183 2 1 31 -77 66 -174 59 -164 65 -177 96
-191 27 -13 38 -14 63 -3 38 15 95 100 132 195 31 78 69 251 69 312 1 104 10
90 141 -219 71 -167 136 -309 146 -315 25 -19 76 -16 99 5 10 10 66 131 124
270 58 138 108 248 111 244 4 -4 19 -58 34 -120 33 -142 41 -158 77 -171 47
-17 94 8 107 56 6 21 37 126 70 233 48 159 60 191 69 175 5 -11 40 -87 76
-170 68 -153 98 -195 140 -195 56 0 69 25 136 270 35 126 67 225 71 218 3 -7
43 -162 89 -345 57 -229 88 -338 101 -352 27 -29 79 -28 107 2 18 19 33 76 75
285 l52 261 94 -134 c51 -74 100 -140 107 -146 17 -14 80 -14 97 -1 7 6 28 43
47 81 18 39 37 71 40 71 3 0 25 -74 49 -165 48 -179 59 -199 117 -199 43 0 60
17 88 86 37 91 103 159 233 241 l42 26 -20 -57 c-59 -172 -98 -422 -105 -682
-3 -96 -7 -203 -10 -237 l-6 -63 -447 0 c-462 0 -501 -3 -521 -40 -16 -31 -11
-79 10 -100 19 -19 33 -20 525 -20 547 0 543 0 579 54 11 18 16 48 16 108 0
140 20 457 35 568 37 271 93 449 175 555 46 60 53 108 20 143 -28 29 -66 28
-148 -4 -174 -69 -338 -170 -408 -252 -28 -33 -32 -34 -37 -17 -3 11 -25 90
-47 175 -46 171 -63 200 -117 200 -45 0 -60 -18 -117 -138 -27 -56 -52 -102
-55 -102 -3 1 -51 66 -106 146 -106 155 -133 184 -172 184 -63 0 -71 -16 -114
-240 l-33 -164 -80 321 c-54 214 -87 328 -100 342 -27 30 -88 29 -113 -3z"/>
<path d="M4084 2440 c-63 -26 -71 -114 -15 -157 30 -23 89 -16 116 13 65 70
-14 181 -101 144z"/>
<path d="M955 2298 c-44 -38 -35 -117 15 -143 36 -19 54 -19 89 0 54 27 61
108 13 145 -33 27 -84 26 -117 -2z"/>
<path d="M1195 2058 c-44 -38 -35 -117 15 -143 36 -19 54 -19 89 0 54 27 61
108 13 145 -33 27 -84 26 -117 -2z"/>
<path d="M3094 1759 c-52 -15 -69 -77 -33 -123 l20 -26 170 0 c156 0 171 2
189 20 21 21 26 69 10 100 -5 10 -24 23 -41 29 -38 13 -270 13 -315 0z"/>
</g>
</svg>
