<?xml version="1.0" standalone="no"?>
<!DOCTYPE svg PUBLIC "-//W3C//DTD SVG 20010904//EN"
 "http://www.w3.org/TR/2001/REC-SVG-20010904/DTD/svg10.dtd">
<svg version="1.0" xmlns="http://www.w3.org/2000/svg"
 width="512.000000pt" height="512.000000pt" viewBox="0 0 512.000000 512.000000"
 preserveAspectRatio="xMidYMid meet">
<metadata>
Created by potrace 1.16, written by Peter Selinger 2001-2019
</metadata>
<g transform="translate(0.000000,512.000000) scale(0.100000,-0.100000)"
fill="#000000" stroke="none">
<path d="M3140 4940 c-19 -19 -20 -33 -20 -220 0 -187 1 -201 20 -220 11 -11
29 -20 40 -20 19 0 20 -7 20 -140 l0 -140 -112 82 c-62 45 -198 144 -302 220
-162 119 -194 138 -226 138 -33 0 -143 -77 -1086 -766 -577 -421 -1055 -773
-1062 -782 -6 -9 -12 -33 -12 -54 0 -47 2 -49 184 -183 l135 -100 1 -737 0
-738 -35 0 c-138 0 -285 -149 -285 -289 0 -34 -3 -39 -28 -44 -73 -15 -179
-122 -202 -205 -17 -62 -12 -166 11 -227 28 -74 100 -146 174 -174 l56 -21
2149 0 2149 0 56 21 c158 59 238 253 174 423 -31 84 -143 186 -204 186 -11 0
-15 11 -15 40 0 141 -147 290 -285 290 l-35 0 0 738 1 737 135 100 c183 135
184 136 184 185 0 25 -7 47 -18 58 -9 9 -171 129 -360 267 l-342 250 0 432 c0
426 0 433 20 433 11 0 29 9 40 20 19 19 20 33 20 220 0 187 -1 201 -20 220
-19 19 -33 20 -460 20 -427 0 -441 -1 -460 -20z m780 -220 l0 -80 -320 0 -320
0 0 80 0 80 320 0 320 0 0 -80z m-80 -610 c0 -203 -3 -370 -6 -370 -3 0 -111
77 -240 171 l-234 172 0 198 0 199 240 0 240 0 0 -370z m-310 -365 c528 -385
959 -702 960 -705 0 -3 -38 -34 -85 -69 l-85 -63 -32 24 c-18 12 -406 294
-862 625 -746 543 -832 603 -866 603 -34 0 -120 -60 -866 -603 -456 -331 -844
-613 -862 -625 l-32 -24 -85 63 c-47 35 -85 66 -85 69 1 9 1925 1410 1933
1407 5 -1 440 -317 967 -702z m-130 -383 l835 -608 3 -1137 2 -1137 -160 0
-160 0 0 940 c0 927 0 940 -20 960 -20 20 -33 20 -620 20 -587 0 -600 0 -620
-20 -20 -20 -20 -33 -20 -960 l0 -940 -880 0 -880 0 2 1137 3 1137 835 608
c459 334 837 608 840 608 3 0 381 -274 840 -608z m360 -2002 l0 -880 -480 0
-480 0 0 880 0 880 480 0 480 0 0 -880z m-3040 -566 l0 -316 -138 4 c-154 4
-187 15 -229 78 -44 64 -23 163 43 206 14 10 51 21 83 25 42 6 61 14 79 34 20
24 22 33 16 103 -5 67 -3 81 15 110 24 37 76 72 109 72 l22 0 0 -316z m3758
296 c18 -11 41 -34 53 -52 18 -29 20 -43 15 -110 -6 -70 -4 -79 16 -103 17
-20 37 -28 78 -34 62 -8 86 -19 116 -53 68 -74 44 -185 -51 -236 -22 -12 -67
-17 -167 -20 l-138 -4 0 316 0 316 23 0 c12 0 37 -9 55 -20z"/>
<path d="M1220 2380 c-20 -20 -20 -33 -20 -620 0 -587 0 -600 20 -620 19 -19
33 -20 540 -20 507 0 521 1 540 20 20 20 20 33 20 620 0 587 0 600 -20 620
-19 19 -33 20 -540 20 -507 0 -521 -1 -540 -20z m460 -340 l0 -200 -160 0
-160 0 0 200 0 200 160 0 160 0 0 -200z m480 0 l0 -200 -160 0 -160 0 0 200 0
200 160 0 160 0 0 -200z m-480 -560 l0 -200 -160 0 -160 0 0 200 0 200 160 0
160 0 0 -200z m480 0 l0 -200 -160 0 -160 0 0 200 0 200 160 0 160 0 0 -200z"/>
<path d="M2980 1500 c-13 -13 -20 -33 -20 -60 0 -53 27 -80 80 -80 53 0 80 27
80 80 0 27 -7 47 -20 60 -13 13 -33 20 -60 20 -27 0 -47 -7 -60 -20z"/>
</g>
</svg>
