<?xml version="1.0" standalone="no"?>
<!DOCTYPE svg PUBLIC "-//W3C//DTD SVG 20010904//EN"
 "http://www.w3.org/TR/2001/REC-SVG-20010904/DTD/svg10.dtd">
<svg version="1.0" xmlns="http://www.w3.org/2000/svg"
 width="512.000000pt" height="512.000000pt" viewBox="0 0 512.000000 512.000000"
 preserveAspectRatio="xMidYMid meet">
<metadata>
Created by potrace 1.16, written by Peter Selinger 2001-2019
</metadata>
<g transform="translate(0.000000,512.000000) scale(0.100000,-0.100000)"
fill="#000000" stroke="none">
<path d="M1235 4275 c-33 -33 -36 -119 -4 -159 27 -34 88 -37 119 -4 31 34 29
130 -5 163 -15 16 -36 25 -55 25 -19 0 -40 -9 -55 -25z"/>
<path d="M3775 4275 c-21 -20 -25 -34 -25 -83 0 -74 22 -102 80 -102 54 0 80
34 80 107 0 65 -29 103 -80 103 -19 0 -40 -9 -55 -25z"/>
<path d="M376 4079 c-20 -16 -26 -29 -26 -58 0 -33 7 -45 45 -80 24 -22 53
-41 64 -41 36 0 70 22 81 53 13 40 -12 93 -59 124 -42 28 -71 29 -105 2z"/>
<path d="M2085 4059 c-38 -35 -45 -47 -45 -80 0 -73 80 -103 141 -52 62 53 70
120 17 157 -36 26 -65 19 -113 -25z"/>
<path d="M2922 4084 c-53 -37 -45 -104 17 -157 61 -51 141 -21 141 52 0 33 -7
45 -45 80 -48 44 -77 51 -113 25z"/>
<path d="M4639 4077 c-47 -31 -73 -85 -59 -122 26 -68 81 -73 145 -14 38 35
45 47 45 80 0 29 -6 42 -26 58 -34 27 -63 26 -105 -2z"/>
<path d="M1231 3954 c-32 -40 -29 -126 4 -159 30 -31 73 -32 109 -4 23 18 26
27 26 83 0 52 -4 66 -23 84 -34 32 -89 30 -116 -4z"/>
<path d="M3772 3957 c-33 -35 -31 -129 3 -162 15 -16 36 -25 55 -25 51 0 80
38 80 103 0 72 -26 107 -79 107 -26 0 -44 -7 -59 -23z"/>
<path d="M591 3844 c-31 -40 -26 -69 20 -119 35 -38 47 -45 80 -45 29 0 42 6
58 26 32 41 27 77 -17 124 -33 34 -45 40 -80 40 -32 0 -45 -6 -61 -26z"/>
<path d="M1850 3824 c-36 -39 -41 -50 -36 -77 9 -47 33 -67 79 -67 32 0 46 7
78 39 31 31 39 46 39 75 0 49 -28 76 -79 76 -33 0 -44 -7 -81 -46z"/>
<path d="M3130 3850 c-34 -34 -27 -86 19 -131 32 -32 46 -39 78 -39 46 0 70
20 79 67 5 27 0 38 -36 77 -37 39 -48 46 -81 46 -26 0 -46 -7 -59 -20z"/>
<path d="M4388 3830 c-44 -47 -49 -83 -17 -124 16 -20 29 -26 58 -26 33 0 45
7 80 45 46 50 51 79 20 119 -16 20 -29 26 -61 26 -35 0 -47 -6 -80 -40z"/>
<path d="M1253 3658 c-31 -15 -46 -60 -41 -119 6 -63 26 -84 79 -84 58 0 79
29 79 105 0 40 -5 64 -17 79 -21 25 -70 35 -100 19z"/>
<path d="M3793 3660 c-31 -13 -43 -41 -43 -103 0 -73 22 -102 79 -102 53 0 73
21 79 84 6 61 -10 104 -44 120 -29 13 -41 13 -71 1z"/>
<path d="M822 3630 c-15 -15 -22 -33 -22 -59 0 -33 7 -45 45 -80 50 -46 79
-51 119 -20 20 16 26 29 26 61 0 35 -6 47 -40 80 -48 44 -93 51 -128 18z"/>
<path d="M1635 3609 c-36 -33 -45 -48 -45 -74 0 -69 67 -103 128 -65 69 43 89
122 41 163 -36 29 -74 22 -124 -24z"/>
<path d="M3363 3635 c-69 -48 -4 -180 89 -180 49 0 78 30 78 80 0 26 -9 41
-45 74 -48 45 -84 52 -122 26z"/>
<path d="M4170 3612 c-34 -33 -40 -45 -40 -80 0 -32 6 -45 26 -61 40 -31 69
-26 119 20 38 35 45 47 45 80 0 48 -30 79 -76 79 -25 0 -44 -10 -74 -38z"/>
<path d="M1112 3327 c-48 -51 -17 -124 56 -134 l42 -6 0 -52 0 -52 -47 -6
c-37 -4 -54 -12 -75 -36 l-28 -31 0 -205 0 -205 -29 0 c-47 0 -79 -17 -96 -49
-18 -35 -22 -292 -5 -336 5 -14 23 -34 40 -43 l30 -17 0 -256 0 -256 -47 -7
c-77 -10 -129 -54 -142 -120 l-7 -31 -359 -5 c-383 -5 -384 -6 -424 -56 -20
-25 -21 -40 -21 -209 0 -170 1 -184 21 -209 33 -42 70 -56 152 -56 92 0 121
18 121 74 0 51 -29 78 -93 84 l-51 5 0 103 0 104 325 0 325 0 0 -104 0 -105
-161 -3 c-155 -3 -161 -4 -180 -27 -25 -31 -25 -85 1 -111 18 -18 33 -20 183
-20 l163 0 13 -35 c7 -19 29 -47 48 -62 l36 -28 366 -3 c240 -2 379 1 403 8
41 12 98 70 98 100 0 20 11 20 790 20 779 0 790 0 790 -20 0 -30 57 -88 98
-100 24 -7 163 -10 403 -8 l366 3 36 28 c19 15 41 43 48 62 l13 35 354 0 c386
0 390 1 431 59 19 27 21 43 21 209 0 166 -1 181 -21 206 -40 50 -41 51 -424
56 l-359 5 -7 31 c-13 66 -65 110 -141 120 l-48 7 0 256 0 256 30 17 c17 9 35
29 40 43 17 44 13 301 -5 336 -17 32 -49 49 -96 49 l-29 0 0 205 0 205 -28 31
c-21 24 -38 32 -75 36 l-47 6 0 52 0 52 42 6 c27 4 49 14 60 27 26 32 23 82
-5 108 -22 21 -33 22 -180 22 -144 0 -159 -2 -177 -20 -27 -27 -27 -90 -1
-114 11 -10 38 -20 60 -23 l41 -6 0 -53 0 -54 -36 0 c-20 0 -48 -7 -63 -16
-53 -31 -56 -44 -59 -260 l-4 -202 -41 -5 c-28 -4 -49 -14 -64 -32 -22 -25
-23 -35 -23 -180 0 -169 7 -197 52 -217 l28 -13 0 -256 0 -256 -49 -7 c-70 -9
-112 -41 -136 -104 l-20 -52 -407 0 -407 0 -20 -26 c-36 -45 -20 -105 32 -124
19 -6 173 -10 418 -10 l389 0 0 -105 0 -105 -780 0 -780 0 0 105 0 105 239 0
c246 0 293 6 311 40 17 32 11 75 -13 98 -23 21 -30 22 -278 22 l-254 0 -20 52
c-24 63 -66 95 -136 104 l-49 7 0 256 0 256 28 13 c45 20 52 48 52 217 0 145
-1 155 -23 180 -15 18 -36 28 -64 32 l-41 5 -4 202 c-3 216 -6 229 -59 260
-15 9 -43 16 -63 16 l-36 0 0 54 0 53 41 6 c22 3 49 13 60 23 26 24 26 87 -1
114 -18 18 -33 20 -178 20 -153 0 -159 -1 -180 -23z m258 -567 l0 -160 -75 0
-75 0 0 160 0 160 75 0 75 0 0 -160z m2530 0 l0 -160 -75 0 -75 0 0 160 0 160
75 0 75 0 0 -160z m-2400 -380 l0 -60 -210 0 -210 0 0 60 0 60 210 0 210 0 0
-60z m2540 0 l0 -60 -210 0 -210 0 0 60 0 60 210 0 210 0 0 -60z m-2620 -480
l0 -260 -130 0 -130 0 0 260 0 260 130 0 130 0 0 -260z m2540 0 l0 -260 -130
0 -130 0 0 260 0 260 130 0 130 0 0 -260z m-2340 -670 l0 -250 -330 0 -330 0
0 243 c0 134 3 247 7 250 3 4 152 7 330 7 l323 0 0 -250z m2538 -2 l2 -248
-330 0 -330 0 0 250 0 250 328 -2 327 -3 3 -247z m812 -13 l0 -105 -325 0
-325 0 0 105 0 105 325 0 325 0 0 -105z"/>
</g>
</svg>
