<?xml version="1.0" standalone="no"?>
<!DOCTYPE svg PUBLIC "-//W3C//DTD SVG 20010904//EN"
 "http://www.w3.org/TR/2001/REC-SVG-20010904/DTD/svg10.dtd">
<svg version="1.0" xmlns="http://www.w3.org/2000/svg"
 width="512.000000pt" height="512.000000pt" viewBox="0 0 512.000000 512.000000"
 preserveAspectRatio="xMidYMid meet">
<metadata>
Created by potrace 1.16, written by Peter Selinger 2001-2019
</metadata>
<g transform="translate(0.000000,512.000000) scale(0.100000,-0.100000)"
fill="#000000" stroke="none">
<path d="M3840 4610 c-93 -49 -120 -113 -120 -281 l0 -119 -35 0 c-22 0 -43
-8 -55 -20 -18 -18 -20 -33 -20 -160 0 -118 -2 -140 -15 -140 -8 0 -24 -9 -35
-20 -19 -19 -20 -33 -20 -415 l0 -395 -127 0 -128 1 -244 497 c-269 549 -275
558 -390 611 -143 65 -148 66 -661 66 l-465 0 -57 -27 c-111 -52 -197 -159
-214 -267 l-7 -41 -92 0 c-76 0 -95 -3 -108 -18 -15 -16 -17 -52 -17 -299 0
-336 -9 -313 128 -313 l92 0 0 -37 0 -38 -393 -149 c-631 -241 -617 -235 -628
-263 -5 -14 -9 -206 -9 -439 l0 -414 -56 0 c-111 0 -124 -25 -124 -230 0 -172
9 -202 65 -226 19 -8 53 -14 75 -14 l40 0 0 -62 c0 -35 6 -74 13 -87 7 -15 69
-58 161 -112 l149 -87 17 -68 c38 -147 107 -262 219 -366 239 -221 625 -252
898 -71 130 85 249 240 289 374 l18 59 148 0 c190 0 188 -2 188 140 l0 100
214 0 214 0 18 -52 c88 -270 328 -529 592 -638 152 -64 250 -83 427 -84 180 0
243 10 393 67 50 19 129 56 174 83 92 56 238 188 309 282 53 70 140 233 160
300 l12 42 56 0 c77 0 138 31 165 85 20 38 21 57 21 335 l0 295 -25 44 c-39
70 -89 91 -215 91 l-102 0 -38 56 c-44 68 -189 220 -245 259 -50 35 -56 75
-12 75 48 0 101 20 122 47 18 23 20 40 20 155 l0 130 -29 29 c-25 25 -37 29
-84 29 -54 0 -55 0 -61 34 -4 19 -16 46 -28 61 -35 45 -74 55 -218 55 l-130 0
0 385 c0 407 -2 430 -47 441 -23 6 -23 8 -23 136 0 162 -11 188 -77 188 l-33
0 0 105 c0 120 15 171 52 179 13 3 69 7 126 8 89 3 106 6 118 22 19 27 18 70
-4 89 -28 26 -253 24 -302 -3z m-1325 -529 c39 -12 91 -36 117 -52 44 -28 51
-41 140 -222 51 -106 155 -317 230 -470 118 -238 136 -278 121 -283 -76 -24
-97 -58 -102 -161 l-3 -83 -763 0 -763 0 -24 33 c-33 43 -64 103 -77 152 -6
25 -11 206 -12 481 -1 426 -1 442 19 485 12 24 27 51 34 59 25 30 83 68 118
79 22 6 194 9 465 8 419 -3 432 -3 500 -26z m1315 -96 l0 -95 -45 0 -45 0 0
95 0 95 45 0 45 0 0 -95z m-2587 -272 c4 -38 7 -123 7 -190 l0 -123 -45 0 -45
0 0 190 0 190 39 0 38 0 6 -67z m2657 -303 l0 -350 -115 0 -115 0 0 350 0 350
115 0 115 0 0 -350z m-2641 -422 c15 -73 58 -169 100 -221 67 -85 448 -488
487 -517 57 -40 157 -87 205 -95 l39 -7 0 -279 c0 -266 1 -280 20 -299 20 -20
33 -20 776 -20 l756 0 20 -25 c44 -57 143 -73 206 -35 101 62 96 220 -8 272
-71 36 -166 13 -205 -49 l-20 -32 -707 -1 -708 0 0 230 0 230 165 0 165 0 0
-129 c0 -104 3 -133 16 -145 13 -14 61 -16 366 -16 313 0 353 2 370 17 22 19
23 62 4 89 -13 17 -30 19 -195 22 -100 2 -181 6 -181 9 0 14 66 122 105 173
263 343 732 466 1130 297 137 -58 309 -190 383 -294 l23 -33 -160 0 c-88 0
-172 -5 -188 -11 -15 -5 -56 -38 -91 -72 l-63 -62 -320 -5 c-303 -5 -321 -6
-335 -24 -19 -26 -18 -65 3 -88 15 -17 39 -18 340 -18 373 0 371 -1 463 96
l52 54 317 0 c258 0 321 -3 337 -14 18 -13 19 -30 22 -278 2 -218 0 -266 -12
-283 -14 -20 -28 -20 -1362 -23 -1230 -2 -1350 -4 -1366 -19 -15 -13 -18 -32
-18 -115 l0 -98 -89 0 -88 0 -7 83 c-9 112 -30 195 -70 280 -121 260 -371 417
-665 417 -133 0 -210 -18 -330 -76 -78 -38 -109 -60 -181 -132 -122 -121 -174
-219 -208 -389 l-17 -82 -90 52 -90 53 0 668 0 668 435 168 c239 92 440 168
445 169 6 1 17 -27 24 -61z m3019 -249 l2 -186 -86 34 c-126 51 -245 73 -397
73 -239 0 -421 -55 -624 -188 l-23 -14 0 236 0 236 563 -2 562 -3 3 -186z
m-1258 -84 l0 -25 -682 0 -683 1 -18 24 -18 25 701 0 700 0 0 -25z m0 -180 l0
-25 -598 0 -599 0 -23 25 -23 25 621 0 622 0 0 -25z m-47 -180 l-18 -24 -410
-1 c-336 0 -421 3 -469 15 -32 9 -66 20 -75 25 -10 6 164 10 487 10 l503 0
-18 -25z m-157 -235 l-39 -80 -49 0 -48 0 0 80 0 80 88 0 88 0 -40 -80z
m-1376 -260 c148 -40 297 -166 369 -311 89 -178 89 -360 0 -538 -100 -202
-308 -331 -534 -331 -169 0 -304 57 -426 179 -112 111 -166 229 -176 383 -8
112 8 191 58 295 45 94 129 191 212 246 144 94 329 123 497 77z m3250 -530 c0
-23 -55 -130 -106 -207 -271 -407 -784 -546 -1219 -330 -124 61 -249 164 -331
273 -54 72 -144 235 -144 262 0 9 187 12 900 12 576 0 900 -4 900 -10z"/>
<path d="M1614 3901 c-17 -11 -36 -34 -43 -52 -14 -41 -15 -718 -1 -770 15
-54 50 -100 95 -123 57 -30 256 -37 286 -10 25 22 24 69 -1 94 -17 17 -33 20
-114 20 -77 0 -98 3 -117 19 l-24 19 -3 346 -3 345 23 6 c13 3 170 5 350 3
314 -3 328 -4 355 -24 28 -21 119 -214 273 -576 l58 -138 -332 0 c-372 0 -376
-1 -376 -65 0 -67 -12 -65 434 -65 378 0 404 1 419 18 10 10 17 30 17 44 0 49
-337 818 -378 862 -61 65 -66 66 -497 66 -366 0 -392 -1 -421 -19z"/>
<path d="M524 2614 c-13 -19 -15 -32 -8 -52 16 -46 42 -52 254 -52 212 0 238
6 254 52 7 20 5 33 -8 52 l-16 26 -230 0 -230 0 -16 -26z"/>
<path d="M530 2410 c-26 -26 -25 -51 1 -84 l20 -26 218 0 c214 0 218 0 239 23
27 29 28 61 2 87 -19 19 -33 20 -240 20 -207 0 -221 -1 -240 -20z"/>
<path d="M531 2194 c-26 -33 -27 -58 -1 -84 19 -19 33 -20 240 -20 207 0 221
1 240 20 27 27 25 62 -3 88 -22 21 -31 22 -239 22 l-217 0 -20 -26z"/>
<path d="M1159 1443 c-176 -90 -183 -339 -12 -440 41 -24 59 -28 123 -28 57 0
85 6 115 22 52 27 100 78 119 125 22 51 20 153 -3 203 -58 127 -215 182 -342
118z m175 -122 c79 -52 73 -167 -10 -206 -44 -21 -75 -19 -115 8 -48 32 -67
89 -46 139 29 70 112 98 171 59z"/>
</g>
</svg>
