<?xml version="1.0" standalone="no"?>
<!DOCTYPE svg PUBLIC "-//W3C//DTD SVG 20010904//EN"
 "http://www.w3.org/TR/2001/REC-SVG-20010904/DTD/svg10.dtd">
<svg version="1.0" xmlns="http://www.w3.org/2000/svg"
 width="512.000000pt" height="512.000000pt" viewBox="0 0 512.000000 512.000000"
 preserveAspectRatio="xMidYMid meet">
<metadata>
Created by potrace 1.16, written by Peter Selinger 2001-2019
</metadata>
<g transform="translate(0.000000,512.000000) scale(0.100000,-0.100000)"
fill="#000000" stroke="none">
<path d="M2790 5109 c-50 -15 -97 -54 -123 -102 -21 -40 -22 -54 -21 -237 0
-270 29 -450 105 -667 177 -504 585 -759 1264 -789 l153 -7 46 -96 c52 -112
109 -274 104 -301 -3 -18 -5 -18 -58 1 -30 10 -91 40 -135 66 -215 127 -339
165 -545 166 -107 0 -154 -4 -225 -22 -104 -25 -269 -102 -341 -158 -27 -22
-54 -42 -60 -46 -7 -4 -19 15 -33 53 -32 88 -81 118 -144 89 -26 -12 -47 -47
-47 -80 0 -15 -5 -19 -17 -15 -10 3 -61 14 -113 25 -567 121 -1077 104 -1456
-48 -589 -237 -938 -843 -1039 -1808 -23 -220 -31 -507 -16 -584 25 -125 109
-239 219 -297 139 -73 558 -179 886 -223 195 -26 544 -36 686 -20 555 64 909
281 1181 726 164 268 299 721 341 1147 l12 116 24 -19 c71 -56 170 10 147 98
-12 48 -124 146 -224 196 l-91 46 64 31 c74 37 163 49 220 30 20 -6 87 -46
149 -87 233 -156 377 -205 607 -206 142 -1 213 14 325 67 145 69 257 179 329
323 55 110 71 179 71 323 0 147 -19 223 -90 357 -86 162 -217 300 -375 393
l-90 52 0 114 c0 182 -31 386 -86 559 -146 459 -453 718 -966 816 -92 18 -159
22 -358 25 -152 2 -258 -1 -280 -7z m529 -184 c589 -86 887 -396 967 -1008 22
-169 19 -175 -40 -86 -129 194 -333 419 -511 564 -113 92 -285 207 -393 264
-67 34 -90 42 -116 37 -41 -8 -65 -34 -72 -77 -8 -45 18 -77 100 -123 107 -60
266 -168 371 -253 111 -89 306 -285 377 -378 102 -134 228 -349 213 -364 -11
-10 -293 -5 -390 8 -578 77 -876 364 -976 941 -25 143 -37 436 -20 468 11 21
16 22 198 22 115 0 226 -6 292 -15z m1201 -1560 c80 -53 192 -170 239 -248
145 -246 129 -492 -47 -678 -108 -115 -241 -170 -412 -170 -168 0 -333 59
-492 176 -121 88 -195 118 -303 122 -141 6 -260 -38 -420 -154 -39 -29 -58
-36 -85 -34 -19 1 -38 6 -42 10 -4 4 -1 38 7 76 8 39 15 104 15 146 l0 76 53
50 c179 168 429 255 643 223 108 -16 208 -55 344 -134 222 -129 369 -149 450
-62 21 23 25 38 28 119 4 87 2 98 -36 202 -21 61 -54 142 -71 180 -30 65 -31
71 -14 80 10 6 29 22 43 37 14 15 27 27 29 28 2 0 34 -20 71 -45z m-2290 -499
c159 -20 283 -42 432 -77 l127 -31 7 -35 c13 -70 -2 -214 -31 -293 -15 -41
-29 -95 -32 -120 -4 -39 -1 -48 21 -69 22 -21 40 -25 135 -33 99 -7 253 -39
324 -67 33 -13 33 -23 11 -224 -62 -566 -220 -1001 -470 -1297 -199 -236 -480
-378 -842 -425 -131 -17 -414 -20 -563 -5 -289 29 -814 151 -948 220 -43 22
-92 72 -117 120 -38 70 -18 535 37 855 114 676 391 1141 805 1348 135 68 365
128 562 147 114 11 397 4 542 -14z"/>
<path d="M1740 2723 c-454 -43 -706 -168 -922 -458 -75 -100 -185 -324 -237
-480 -94 -288 -149 -653 -154 -1023 l-2 -173 29 -26 c25 -21 37 -24 70 -20 67
9 73 23 81 214 34 837 232 1383 586 1619 144 96 323 147 578 167 171 14 192
21 205 73 9 35 -18 92 -49 104 -25 9 -107 11 -185 3z"/>
<path d="M2330 694 c-138 -99 -350 -160 -607 -173 -121 -6 -134 -9 -158 -31
-35 -33 -35 -91 1 -127 l26 -26 146 6 c239 9 442 59 615 150 108 57 147 95
147 141 0 81 -94 114 -170 60z"/>
</g>
</svg>
