<?xml version="1.0" standalone="no"?>
<!DOCTYPE svg PUBLIC "-//W3C//DTD SVG 20010904//EN"
 "http://www.w3.org/TR/2001/REC-SVG-20010904/DTD/svg10.dtd">
<svg version="1.0" xmlns="http://www.w3.org/2000/svg"
 width="512.000000pt" height="512.000000pt" viewBox="0 0 512.000000 512.000000"
 preserveAspectRatio="xMidYMid meet">
<metadata>
Created by potrace 1.16, written by Peter Selinger 2001-2019
</metadata>
<g transform="translate(0.000000,512.000000) scale(0.100000,-0.100000)"
fill="#000000" stroke="none">
<path d="M2018 5102 c-41 -25 -58 -69 -58 -154 0 -55 5 -81 20 -105 22 -37 67
-63 108 -63 l29 0 6 -77 c9 -130 74 -244 181 -318 l56 -38 0 -1235 0 -1234
-30 -35 c-29 -32 -30 -38 -30 -123 l0 -90 -335 0 c-374 0 -382 -1 -431 -66
l-29 -37 -3 -313 -3 -313 -37 -6 c-189 -29 -348 -106 -482 -234 -40 -38 -41
-38 -138 -43 -150 -8 -261 -57 -361 -161 -59 -61 -96 -117 -121 -185 -44 -117
-49 -214 -14 -253 17 -18 78 -19 2214 -19 l2197 0 19 21 c34 38 19 195 -29
319 -63 162 -131 217 -192 155 -33 -32 -31 -63 9 -143 32 -64 66 -161 66 -189
0 -10 -58 -13 -299 -13 l-298 0 -28 63 c-41 92 -99 173 -187 259 l-78 77 43
25 c85 50 164 69 277 70 103 0 125 -4 247 -48 68 -25 123 8 123 74 0 49 -84
96 -222 124 -178 37 -382 0 -533 -95 -25 -16 -48 -29 -50 -29 -2 0 -5 193 -7
428 l-3 429 -29 37 c-49 65 -57 66 -431 66 l-335 0 0 90 c0 85 -1 91 -30 123
l-30 35 0 136 c0 174 -13 206 -86 206 -14 0 -36 -11 -49 -25 -24 -23 -25 -28
-25 -170 l0 -145 -40 0 -40 0 0 1065 0 1065 40 0 40 0 0 -770 0 -771 25 -24
c39 -40 96 -32 120 16 13 24 15 161 15 957 l0 929 56 38 c107 74 172 188 181
318 l6 77 31 0 c41 0 91 32 111 69 20 40 20 162 0 205 -32 68 -17 66 -587 66
-465 -1 -516 -2 -540 -18z m982 -147 c0 -13 -23 -15 -150 -15 -189 0 -220 -12
-220 -86 0 -14 11 -36 25 -49 22 -22 32 -25 105 -25 l80 0 0 -48 c0 -98 -77
-207 -177 -248 -50 -22 -156 -22 -206 0 -100 41 -177 150 -177 248 l0 48 45 0
c71 0 112 53 89 115 -13 33 -59 45 -179 45 -96 0 -115 3 -115 15 0 13 56 15
440 15 384 0 440 -2 440 -15z m-340 -3280 l0 -45 -100 0 -100 0 0 45 0 45 100
0 100 0 0 -45z m800 -215 c0 -7 -307 -10 -900 -10 -593 0 -900 3 -900 10 0 7
307 10 900 10 593 0 900 -3 900 -10z m0 -469 l0 -300 -47 14 c-27 7 -67 16
-90 20 l-43 7 0 242 c0 227 -1 244 -20 263 -27 29 -56 37 -89 23 -47 -19 -51
-42 -51 -290 0 -260 10 -234 -97 -245 l-63 -7 0 249 c-1 262 -2 267 -48 292
-30 16 -65 7 -92 -21 -19 -21 -20 -34 -20 -297 l0 -276 -73 -40 c-39 -22 -75
-41 -79 -43 -5 -2 -8 140 -8 315 0 307 -1 320 -20 341 -38 40 -93 37 -127 -7
-9 -12 -12 -116 -13 -409 0 -429 1 -419 -57 -389 -16 9 -45 18 -66 22 l-37 7
0 377 c-1 280 -4 380 -13 392 -34 44 -89 47 -127 7 -19 -21 -20 -34 -20 -306
l0 -285 -43 39 c-23 22 -59 50 -79 64 l-38 25 0 212 c0 230 -5 254 -51 273
-33 14 -62 6 -89 -23 -18 -19 -20 -36 -20 -203 l0 -183 -40 14 c-23 8 -63 17
-90 21 l-50 7 0 198 0 199 900 0 900 0 0 -299z m-1691 -286 c121 -41 236 -120
312 -216 l30 -38 -58 -28 c-96 -47 -181 -147 -217 -255 -5 -16 -24 -18 -215
-18 l-209 0 -6 45 c-18 114 -133 277 -242 341 l-47 28 39 34 c56 48 187 110
269 127 106 22 241 14 344 -20z m1581 -151 c88 -20 233 -91 305 -151 65 -53
142 -144 180 -210 l24 -43 -930 0 -930 0 31 45 c19 27 52 57 83 75 95 54 186
52 282 -5 90 -55 108 -50 194 45 81 89 199 173 301 213 57 22 94 31 210 51 41
7 180 -4 250 -20z m-2314 -134 c37 -18 86 -51 108 -74 42 -43 89 -121 100
-168 l6 -28 -380 0 -381 0 6 23 c38 126 142 232 268 273 26 9 73 13 124 11 68
-3 92 -9 149 -37z"/>
<path d="M4212 3887 c-152 -56 -199 -258 -85 -369 49 -47 99 -68 165 -68 66 0
124 26 165 73 42 47 56 96 51 173 -3 50 -10 73 -34 106 -55 80 -171 118 -262
85z"/>
<path d="M755 3491 c-161 -74 -182 -293 -37 -394 43 -30 53 -32 127 -32 74 0
84 2 127 32 180 126 92 413 -127 413 -27 0 -68 -9 -90 -19z"/>
<path d="M3500 2871 c-184 -98 -157 -368 43 -422 96 -26 210 25 256 114 26 52
32 138 13 188 -16 40 -70 98 -113 120 -51 25 -150 25 -199 0z"/>
<path d="M1461 2320 c-147 -63 -188 -257 -78 -370 86 -88 219 -93 309 -12 81
73 100 174 52 270 -39 78 -96 114 -188 119 -39 1 -82 -2 -95 -7z"/>
<path d="M4150 2074 c-145 -63 -182 -265 -68 -371 84 -78 207 -82 304 -8 93
71 101 238 16 329 -58 62 -173 84 -252 50z"/>
</g>
</svg>
