<?xml version="1.0" standalone="no"?>
<!DOCTYPE svg PUBLIC "-//W3C//DTD SVG 20010904//EN"
 "http://www.w3.org/TR/2001/REC-SVG-20010904/DTD/svg10.dtd">
<svg version="1.0" xmlns="http://www.w3.org/2000/svg"
 width="512.000000pt" height="512.000000pt" viewBox="0 0 512.000000 512.000000"
 preserveAspectRatio="xMidYMid meet">
<metadata>
Created by potrace 1.16, written by Peter Selinger 2001-2019
</metadata>
<g transform="translate(0.000000,512.000000) scale(0.100000,-0.100000)"
fill="#000000" stroke="none">
<path d="M1290 4625 c-1360 -545 -1290 -512 -1290 -601 0 -25 7 -58 15 -74 33
-64 -43 -60 1265 -60 l1190 0 0 -930 0 -930 -245 0 c-135 0 -245 3 -245 6 0 4
5 24 12 45 10 35 15 39 44 39 36 0 84 46 84 81 0 28 -26 75 -45 83 -28 10
-785 7 -805 -4 -26 -14 -43 -71 -31 -103 12 -32 48 -57 82 -57 21 0 28 -7 37
-39 7 -21 12 -41 12 -44 0 -3 -41 -7 -91 -9 -81 -3 -93 -6 -110 -27 -19 -23
-25 -74 -13 -106 10 -25 59 -45 114 -45 l50 0 0 -102 c1 -140 32 -207 113
-237 19 -7 200 -11 533 -11 l504 0 0 -450 0 -449 -29 -15 c-53 -28 -94 -70
-117 -121 -21 -44 -24 -65 -24 -172 l0 -123 -110 0 c-104 0 -112 -1 -135 -25
-34 -33 -34 -87 0 -120 l24 -25 481 0 481 0 24 25 c34 33 34 87 0 120 -23 24
-31 25 -135 25 l-110 0 0 123 c0 107 -3 128 -24 172 -23 51 -64 93 -117 121
l-29 15 0 449 0 450 504 0 c333 0 514 4 533 11 81 30 112 97 113 237 l0 102
50 0 c55 0 104 20 114 45 12 32 6 83 -13 106 -17 21 -29 24 -110 27 -50 2 -91
6 -91 9 0 3 5 23 12 44 9 32 16 39 37 39 34 0 70 25 82 57 12 32 -5 89 -31
103 -20 11 -777 14 -805 4 -19 -8 -45 -55 -45 -83 0 -35 48 -81 84 -81 29 0
34 -4 44 -39 7 -21 12 -41 12 -45 0 -3 -110 -6 -245 -6 l-245 0 0 930 0 930
1190 0 c1293 0 1226 -3 1264 54 9 15 16 46 16 75 0 95 83 56 -1290 605 -778
311 -1252 496 -1273 496 -18 -1 -557 -211 -1267 -495z m1700 -140 l425 -425
-855 0 -855 0 425 425 c234 234 427 425 430 425 3 0 196 -191 430 -425z
m-1170 -60 l-365 -365 -545 0 -545 1 905 364 c498 200 907 364 910 364 3 1
-159 -163 -360 -364z m2058 -11 l873 -349 -543 -3 -543 -2 -365 366 c-272 272
-356 362 -330 352 19 -8 428 -171 908 -364z m-2075 -2339 l-15 -45 -113 0
-113 0 -15 45 -16 45 144 0 144 0 -16 -45z m1770 0 l-15 -45 -113 0 -113 0
-15 45 -16 45 144 0 144 0 -16 -45z m47 -315 l0 -90 -1060 0 -1060 0 0 90 0
90 1060 0 1060 0 0 -90z m-1025 -1332 c43 -19 55 -56 55 -163 l0 -95 -90 0
-90 0 0 98 c1 104 11 136 51 158 30 17 42 17 74 2z"/>
<path d="M44 2726 c-36 -16 -44 -32 -44 -87 0 -22 38 -346 85 -719 l85 -679 0
-586 c0 -619 1 -632 45 -649 32 -12 83 -6 106 13 24 19 24 23 27 220 l3 201
355 0 354 0 0 -198 c0 -195 0 -199 23 -220 33 -31 96 -30 125 1 22 23 22 27
22 404 l0 381 26 6 c14 4 48 29 74 55 128 128 96 337 -65 424 -39 21 -51 22
-482 25 l-442 3 -6 32 c-3 18 -41 322 -85 677 -56 445 -85 652 -96 668 -13 20
-52 43 -72 42 -4 -1 -21 -7 -38 -14z m1131 -1590 c61 -26 75 -98 29 -141 l-27
-25 -413 0 -414 0 0 90 0 90 395 0 c319 0 402 -3 430 -14z m-115 -436 l0 -90
-355 0 -355 0 0 90 0 90 355 0 355 0 0 -90z"/>
<path d="M5003 2730 c-12 -5 -29 -19 -37 -32 -11 -16 -40 -221 -96 -668 -44
-355 -82 -659 -85 -677 l-6 -32 -442 -3 c-431 -3 -443 -4 -482 -25 -162 -87
-194 -295 -64 -425 26 -26 59 -50 73 -54 l26 -6 0 -378 c0 -367 1 -378 21
-404 28 -35 95 -37 127 -3 21 22 22 32 22 220 l0 197 354 0 355 0 3 -201 c3
-197 3 -201 27 -220 23 -19 74 -25 106 -13 44 17 45 30 45 649 l0 586 85 679
c47 373 85 698 85 720 0 54 -12 75 -51 89 -37 13 -37 13 -66 1z m-233 -1670
l0 -90 -414 0 -413 0 -27 25 c-28 26 -35 70 -15 106 24 46 50 48 472 49 l397
0 0 -90z m0 -360 l0 -90 -355 0 -355 0 0 90 0 90 355 0 355 0 0 -90z"/>
</g>
</svg>
